<svg  xmlns="http://www.w3.org/2000/svg">
      <symbol viewBox="0 0 24 24" id="circleHeat">
        <path
          d="M7 12H17M8 8.5C8 8.5 9 9 10 9C11.5 9 12.5 8 14 8C15 8 16 8.5 16 8.5M8 15.5C8 15.5 9 16 10 16C11.5 16 12.5 15 14 15C15 15 16 15.5 16 15.5M21 12C21 16.9706 16.9706 21 12 21C7.02944 21 3 16.9706 3 12C3 7.02944 7.02944 3 12 3C16.9706 3 21 7.02944 21 12Z"
          stroke="#currentColor"
          stroke-width="2"
          stroke-linecap="round"
          stroke-linejoin="round"
        />
      </symbol>
      <symbol viewBox="0 0 24 24" id="cloudMoon">
        <path
          d="M21 15.5018C18.651 14.5223 17 12.2039 17 9.5C17 6.79774 18.6534 4.48062 21 3.5C20.2304 3.17906 19.3859 3 18.5 3C15.7977 3 13.4806 4.64899 12.5 6.9956M6.9 21C4.74609 21 3 19.2889 3 17.1781C3 15.4286 4.3 13.8125 6.25 13.5C6.86168 12.0617 8.30934 11 9.9978 11C12.1607 11 13.9285 12.6589 14.05 14.75C15.1978 15.2463 16 16.4645 16 17.7835C16 19.5599 14.5449 21 12.75 21L6.9 21Z"
          stroke="currentColor"
          stroke-width="2"
          stroke-linecap="round"
          stroke-linejoin="round"
        />
      </symbol>
      <symbol viewBox="0 0 24 24" id="cloudSun">
        <path 
            d="M7.45508 2V3M11.3438 3.61084L10.6366 4.31795M4.27344 10.6821L3.56633 11.3892M1.95508 7.5H2.95508M3.56641 3.61084L4.27351 4.31795M6.50049 9.21251C6.38862 9.15163 6.2832 9.08038 6.18553 9.00006C5.73952 8.63325 5.45508 8.07714 5.45508 7.45459C5.45508 6.35002 6.35051 5.45459 7.45508 5.45459C8.21398 5.45459 8.87416 5.87727 9.21303 6.50006C9.29756 6.65541 9.3621 6.82321 9.40319 7M9.8 21C7.14903 21 5 18.9466 5 16.4137C5 14.3144 6.6 12.375 9 12C9.75283 10.274 11.5346 9 13.6127 9C16.2747 9 18.4504 10.9907 18.6 13.5C20.0127 14.0956 21 15.5574 21 17.1402C21 19.2719 19.2091 21 17 21L9.8 21Z"
            stroke="currentColor"
            stroke-width="2"
            stroke-linecap="round"
            stroke-linejoin="round"/>
      </symbol>
</svg>